<svg id="Group_75" data-name="Group 75" xmlns="http://www.w3.org/2000/svg" width="277.386" height="41.051" viewBox="0 0 277.386 41.051">
  <g id="Page-1">
    <g id="Core" transform="translate(0 0)">
      <g id="star">
        <path id="Shape" d="M21.606,33l13.352,8.052L31.425,25.864,43.211,15.651,27.675,14.318,21.606,0,15.537,14.318,0,15.651,11.786,25.864,8.253,41.051Z" fill="#ffc400" fill-rule="evenodd"/>
      </g>
    </g>
  </g>
  <g id="Page-1-2" data-name="Page-1" transform="translate(58.366)">
    <g id="Core-2" data-name="Core" transform="translate(0 0)">
      <g id="star-2" data-name="star">
        <path id="Shape-2" data-name="Shape" d="M21.606,33l13.352,8.052L31.425,25.864,43.211,15.651,27.675,14.318,21.606,0,15.537,14.318,0,15.651,11.786,25.864,8.253,41.051Z" fill="#ffc400" fill-rule="evenodd"/>
      </g>
    </g>
  </g>
  <g id="Page-1-3" data-name="Page-1" transform="translate(117.443)">
    <g id="Core-3" data-name="Core" transform="translate(0 0)">
      <g id="star-3" data-name="star">
        <path id="Shape-3" data-name="Shape" d="M21.606,33l13.352,8.052L31.425,25.864,43.211,15.651,27.675,14.318,21.606,0,15.537,14.318,0,15.651,11.786,25.864,8.253,41.051Z" fill="#ffc400" fill-rule="evenodd"/>
      </g>
    </g>
  </g>
  <g id="Page-1-4" data-name="Page-1" transform="translate(175.809)">
    <g id="Core-4" data-name="Core" transform="translate(0 0)">
      <g id="star-4" data-name="star">
        <path id="Shape-4" data-name="Shape" d="M21.606,33l13.352,8.052L31.425,25.864,43.211,15.651,27.675,14.318,21.606,0,15.537,14.318,0,15.651,11.786,25.864,8.253,41.051Z" fill="#ffc400" fill-rule="evenodd"/>
      </g>
    </g>
  </g>
  <g id="Page-1-5" data-name="Page-1" transform="translate(234.174)">
    <g id="Core-5" data-name="Core" transform="translate(0 0)">
      <g id="star-5" data-name="star">
        <path id="Shape-5" data-name="Shape" d="M21.606,33l13.352,8.052L31.425,25.864,43.211,15.651,27.675,14.318,21.606,0,15.537,14.318,0,15.651,11.786,25.864,8.253,41.051Z" fill="#ffc400" fill-rule="evenodd"/>
      </g>
    </g>
  </g>
</svg>
