<svg xmlns="http://www.w3.org/2000/svg" width="343.44" height="245.042" viewBox="0 0 343.44 245.042">
  <g id="Group_266" data-name="Group 266" transform="translate(-268.598 -367.666)">
    <path id="Path_262" data-name="Path 262" d="M6.466-37.1h2.7V-2.438H30.528V0H6.466ZM59.519-13.2h-23.8a11.563,11.563,0,0,0,1.643,5.751,10.513,10.513,0,0,0,4.16,3.9,12.513,12.513,0,0,0,5.909,1.378,12.664,12.664,0,0,0,5.009-.98,9.753,9.753,0,0,0,3.843-2.889l1.537,1.749A11.809,11.809,0,0,1,53.292-.954,14.884,14.884,0,0,1,47.382.212a14.873,14.873,0,0,1-7.367-1.8,13.065,13.065,0,0,1-5.062-4.982,14.3,14.3,0,0,1-1.828-7.261,15.042,15.042,0,0,1,1.722-7.235,12.7,12.7,0,0,1,4.743-5.008,12.988,12.988,0,0,1,6.784-1.8A13,13,0,0,1,53.132-26.1a12.62,12.62,0,0,1,4.717,4.956,14.888,14.888,0,0,1,1.722,7.208ZM46.375-25.546a10.6,10.6,0,0,0-5.247,1.3,9.894,9.894,0,0,0-3.736,3.657,11.913,11.913,0,0,0-1.616,5.326h21.2a11.1,11.1,0,0,0-1.59-5.3,10.365,10.365,0,0,0-3.763-3.657A10.432,10.432,0,0,0,46.375-25.546ZM76.32-27.878q5.141,0,7.9,2.624t2.756,7.712V0H84.429V-4.929A9.2,9.2,0,0,1,80.56-1.14,12.83,12.83,0,0,1,74.465.212a11.234,11.234,0,0,1-7.288-2.173A7.012,7.012,0,0,1,64.5-7.685a7.064,7.064,0,0,1,2.465-5.592q2.464-2.146,7.87-2.146h9.487v-2.226a7.791,7.791,0,0,0-2.093-5.883q-2.094-2.014-6.121-2.014a14.757,14.757,0,0,0-5.273.954,13.23,13.23,0,0,0-4.267,2.544l-1.325-1.908a14.727,14.727,0,0,1,4.982-2.888A18.1,18.1,0,0,1,76.32-27.878ZM74.836-1.961a10.4,10.4,0,0,0,5.857-1.59,9.669,9.669,0,0,0,3.63-4.611v-5.194H74.889q-4.081,0-5.91,1.484a4.97,4.97,0,0,0-1.828,4.081,5.11,5.11,0,0,0,2.014,4.266A9.061,9.061,0,0,0,74.836-1.961Zm25.6-19.663a9.573,9.573,0,0,1,3.975-4.638,12.586,12.586,0,0,1,6.572-1.617v2.6l-.636-.053a9.2,9.2,0,0,0-7.208,2.889q-2.6,2.889-2.6,8.03V0h-2.65V-27.666h2.544Zm31.376-6.254a11.1,11.1,0,0,1,8.215,3.021q3.021,3.021,3.021,8.692V0H140.4V-15.953q0-4.664-2.359-7.1a8.753,8.753,0,0,0-6.6-2.438,10.172,10.172,0,0,0-7.685,2.915,10.828,10.828,0,0,0-2.809,7.844V0H118.3V-27.666h2.544v5.989a10.523,10.523,0,0,1,4.266-4.558A13.141,13.141,0,0,1,131.811-27.878ZM171.4.318l-.8.053a19.1,19.1,0,0,1-13.886-5.486A18.333,18.333,0,0,1,151.1-18.789a18.333,18.333,0,0,1,5.618-13.674,19.1,19.1,0,0,1,13.886-5.486,19.1,19.1,0,0,1,13.886,5.486,18.3,18.3,0,0,1,5.618,13.648,18.777,18.777,0,0,1-3.339,11,18.7,18.7,0,0,1-8.9,6.917,5.494,5.494,0,0,0,4.558,2.385,8.128,8.128,0,0,0,3.949-1.06,7.528,7.528,0,0,0,2.942-2.756L192.867,2.6A14.157,14.157,0,0,1,182.32,7.473,12.339,12.339,0,0,1,175.8,5.565,10.306,10.306,0,0,1,171.4.318Zm8.507-28.62a12.431,12.431,0,0,0-9.3-3.922,12.431,12.431,0,0,0-9.3,3.922,13.187,13.187,0,0,0-3.789,9.514,13.187,13.187,0,0,0,3.789,9.514,12.431,12.431,0,0,0,9.3,3.922,12.431,12.431,0,0,0,9.3-3.922,13.187,13.187,0,0,0,3.789-9.514A13.187,13.187,0,0,0,179.909-28.3Zm36.967,15.37V-28.2h5.936V0h-5.936V-5.141a10.564,10.564,0,0,1-3.949,4.081A10.514,10.514,0,0,1,207.5.424a10.48,10.48,0,0,1-7.712-2.915q-2.941-2.915-2.941-8.427V-28.2h5.936V-12.72q0,7.791,6.466,7.791A7.767,7.767,0,0,0,214.6-6.97,7.588,7.588,0,0,0,216.876-12.932Zm29.309-9.7a7.876,7.876,0,0,0-6.625,2.862,12.192,12.192,0,0,0-2.226,7.685V0H231.4V-28.2h5.936v5.671a12.286,12.286,0,0,1,3.9-4.346,9.385,9.385,0,0,1,5.221-1.749l.053,5.989ZM275.017,0h-5.406V-3.763A11.6,11.6,0,0,1,260.23.424a10.761,10.761,0,0,1-7.288-2.491,8.342,8.342,0,0,1-2.888-6.652,7,7,0,0,1,3.074-6.227,14.722,14.722,0,0,1,8.321-2.067h7.685v-1.06q0-5.618-6.254-5.618a14.664,14.664,0,0,0-8.162,2.862l-2.65-3.71a18.254,18.254,0,0,1,11.66-4.081,12.639,12.639,0,0,1,8.135,2.517q3.153,2.518,3.154,7.924Zm-5.936-10.494v-2.385H262.4q-6.413,0-6.413,4.028A3.582,3.582,0,0,0,257.58-5.7a7.768,7.768,0,0,0,4.426,1.087,8.03,8.03,0,0,0,4.955-1.59A5.088,5.088,0,0,0,269.081-10.494Zm12.932-20.564a2.747,2.747,0,0,1-1.431-2.517,3.455,3.455,0,0,1,.954-2.6,3.285,3.285,0,0,1,2.385-.928,3.432,3.432,0,0,1,2.411.9,3.053,3.053,0,0,1,.98,2.358,4.924,4.924,0,0,1-.954,2.836L283.232-26.5H280ZM315.668,0h-5.406V-3.763A11.6,11.6,0,0,1,300.881.424a10.761,10.761,0,0,1-7.288-2.491,8.342,8.342,0,0,1-2.888-6.652,7,7,0,0,1,3.074-6.227,14.722,14.722,0,0,1,8.321-2.067h7.685v-1.06q0-5.618-6.254-5.618a14.664,14.664,0,0,0-8.162,2.862l-2.65-3.71a18.254,18.254,0,0,1,11.66-4.081,12.639,12.639,0,0,1,8.135,2.517q3.153,2.518,3.154,7.924Zm-5.936-10.494v-2.385h-6.678q-6.413,0-6.413,4.028a3.582,3.582,0,0,0,1.59,3.154,7.768,7.768,0,0,0,4.426,1.087,8.03,8.03,0,0,0,4.955-1.59A5.088,5.088,0,0,0,309.732-10.494Zm20.14-4.77V0h-5.936V-28.2h5.936v5.141a10.564,10.564,0,0,1,3.948-4.081,10.514,10.514,0,0,1,5.432-1.484,10.48,10.48,0,0,1,7.712,2.915q2.941,2.915,2.941,8.427V0H343.97V-15.476q0-7.791-6.466-7.791a7.767,7.767,0,0,0-5.353,2.04A7.589,7.589,0,0,0,329.872-15.264Z" transform="translate(262.132 577.655)" fill="#d8b600"/>
    <path id="Path_263" data-name="Path 263" d="M2.1-.336a1.754,1.754,0,0,1-.516-1.272A1.714,1.714,0,0,1,2.1-2.868a1.714,1.714,0,0,1,1.26-.516,1.754,1.754,0,0,1,1.272.516,1.7,1.7,0,0,1,.528,1.26A1.734,1.734,0,0,1,4.632-.336,1.734,1.734,0,0,1,3.36.192,1.7,1.7,0,0,1,2.1-.336Zm6.96,0a1.754,1.754,0,0,1-.516-1.272,1.714,1.714,0,0,1,.516-1.26,1.714,1.714,0,0,1,1.26-.516,1.754,1.754,0,0,1,1.272.516,1.7,1.7,0,0,1,.528,1.26,1.734,1.734,0,0,1-.528,1.272A1.734,1.734,0,0,1,10.32.192,1.7,1.7,0,0,1,9.06-.336Zm6.96,0A1.754,1.754,0,0,1,15.5-1.608a1.714,1.714,0,0,1,.516-1.26,1.714,1.714,0,0,1,1.26-.516,1.754,1.754,0,0,1,1.272.516,1.7,1.7,0,0,1,.528,1.26,1.734,1.734,0,0,1-.528,1.272A1.734,1.734,0,0,1,17.28.192,1.7,1.7,0,0,1,16.02-.336ZM33.168,0H30.72V-1.7a5.252,5.252,0,0,1-4.248,1.9,4.873,4.873,0,0,1-3.3-1.128,3.778,3.778,0,0,1-1.308-3.012,3.17,3.17,0,0,1,1.392-2.82A6.667,6.667,0,0,1,27.024-7.7H30.5v-.48q0-2.544-2.832-2.544a6.64,6.64,0,0,0-3.7,1.3l-1.2-1.68a8.266,8.266,0,0,1,5.28-1.848,5.723,5.723,0,0,1,3.684,1.14,4.316,4.316,0,0,1,1.428,3.588ZM30.48-4.752v-1.08H27.456q-2.9,0-2.9,1.824a1.622,1.622,0,0,0,.72,1.428,3.518,3.518,0,0,0,2,.492,3.636,3.636,0,0,0,2.244-.72A2.3,2.3,0,0,0,30.48-4.752Zm9.36-2.16V0H37.152V-12.768H39.84v2.328a4.784,4.784,0,0,1,1.788-1.848,4.761,4.761,0,0,1,2.46-.672,4.746,4.746,0,0,1,3.492,1.32,5.139,5.139,0,0,1,1.332,3.816V0H46.224V-7.008q0-3.528-2.928-3.528a3.517,3.517,0,0,0-2.424.924A3.436,3.436,0,0,0,39.84-6.912ZM58.1.192A5.746,5.746,0,0,1,53.88-1.632a6.538,6.538,0,0,1-1.8-4.8,6.284,6.284,0,0,1,1.848-4.752,6.136,6.136,0,0,1,4.4-1.776,4.844,4.844,0,0,1,4.116,2.16v-7.008h2.688V0H62.448V-1.92A4.979,4.979,0,0,1,58.1.192ZM54.768-6.324a4,4,0,0,0,1.176,2.988A3.817,3.817,0,0,0,58.7-2.184a3.565,3.565,0,0,0,2.688-1.164,4.166,4.166,0,0,0,1.1-2.988,4.382,4.382,0,0,0-1.1-3.048,3.511,3.511,0,0,0-2.712-1.224,3.658,3.658,0,0,0-2.76,1.224A4.291,4.291,0,0,0,54.768-6.324ZM82.056,0H78.984L74.568-12.768h2.784L80.52-3.12l3.168-9.648h2.784L89.64-3.12l3.168-9.648h2.784L91.176,0H88.1L85.08-8.736Zm28.032-5.208H100.08a2.909,2.909,0,0,0,1.272,2.244,4.465,4.465,0,0,0,2.688.852,4.458,4.458,0,0,0,3.648-1.512l1.536,1.68A7.14,7.14,0,0,1,103.848.192,6.4,6.4,0,0,1,99.276-1.6a6.3,6.3,0,0,1-1.884-4.8,6.205,6.205,0,0,1,1.92-4.788,6.444,6.444,0,0,1,4.524-1.776,6.551,6.551,0,0,1,4.428,1.572,5.417,5.417,0,0,1,1.824,4.332ZM100.08-7.32h7.32a3.077,3.077,0,0,0-1.008-2.472,3.684,3.684,0,0,0-2.484-.864,4.252,4.252,0,0,0-2.652.9A2.906,2.906,0,0,0,100.08-7.32Zm23.328-3.288v6.48a2.106,2.106,0,0,0,.48,1.452,1.7,1.7,0,0,0,1.344.54,2.289,2.289,0,0,0,1.656-.84l1.1,1.9A4.582,4.582,0,0,1,124.86.192,4.03,4.03,0,0,1,121.932-1a4.282,4.282,0,0,1-1.212-3.2v-6.408h-1.608v-2.16h1.608v-4.008h2.688v4.008h3.36v2.16Zm18.84,5.4H132.24a2.909,2.909,0,0,0,1.272,2.244,4.465,4.465,0,0,0,2.688.852,4.458,4.458,0,0,0,3.648-1.512l1.536,1.68A7.14,7.14,0,0,1,136.008.192,6.4,6.4,0,0,1,131.436-1.6a6.305,6.305,0,0,1-1.884-4.8,6.205,6.205,0,0,1,1.92-4.788A6.444,6.444,0,0,1,136-12.96a6.551,6.551,0,0,1,4.428,1.572,5.417,5.417,0,0,1,1.824,4.332ZM132.24-7.32h7.32a3.078,3.078,0,0,0-1.008-2.472,3.684,3.684,0,0,0-2.484-.864,4.252,4.252,0,0,0-2.652.9A2.906,2.906,0,0,0,132.24-7.32ZM155.784,0h-2.448V-1.7a5.252,5.252,0,0,1-4.248,1.9,4.873,4.873,0,0,1-3.3-1.128,3.778,3.778,0,0,1-1.308-3.012,3.17,3.17,0,0,1,1.392-2.82A6.667,6.667,0,0,1,149.64-7.7h3.48v-.48q0-2.544-2.832-2.544a6.64,6.64,0,0,0-3.7,1.3l-1.2-1.68a8.266,8.266,0,0,1,5.28-1.848,5.723,5.723,0,0,1,3.684,1.14,4.316,4.316,0,0,1,1.428,3.588ZM153.1-4.752v-1.08h-3.024q-2.9,0-2.9,1.824a1.622,1.622,0,0,0,.72,1.428,3.518,3.518,0,0,0,2,.492,3.636,3.636,0,0,0,2.244-.72A2.3,2.3,0,0,0,153.1-4.752ZM165.432.192a6.447,6.447,0,0,1-4.584-1.812,6.218,6.218,0,0,1-1.92-4.74,6.163,6.163,0,0,1,2-4.764,6.968,6.968,0,0,1,4.884-1.836,6.627,6.627,0,0,1,4.872,1.992L169.1-9.024a5.1,5.1,0,0,0-3.336-1.44,4.209,4.209,0,0,0-2.916,1.116,3.7,3.7,0,0,0-1.236,2.88A4.065,4.065,0,0,0,162.84-3.48a4.094,4.094,0,0,0,3.012,1.224,4.678,4.678,0,0,0,3.372-1.632l1.584,1.728A7.348,7.348,0,0,1,165.432.192Zm11.088-7.1V0h-2.688V-17.784h2.688v7.344a4.261,4.261,0,0,1,1.74-1.848,4.932,4.932,0,0,1,2.508-.672,4.746,4.746,0,0,1,3.492,1.32,5.139,5.139,0,0,1,1.332,3.816V0H182.9V-7.008q0-3.528-2.928-3.528a3.517,3.517,0,0,0-2.424.924A3.436,3.436,0,0,0,176.52-6.912ZM199.08,0h-2.688V-12.768h2.688Zm-2.52-15.312a1.639,1.639,0,0,1-.5-1.2,1.639,1.639,0,0,1,.5-1.2,1.639,1.639,0,0,1,1.2-.5,1.639,1.639,0,0,1,1.2.5,1.639,1.639,0,0,1,.5,1.2,1.639,1.639,0,0,1-.5,1.2,1.639,1.639,0,0,1-1.2.5A1.639,1.639,0,0,1,196.56-15.312ZM212.3-3.816A3.592,3.592,0,0,1,210.984-.9,5.133,5.133,0,0,1,207.6.192a9.065,9.065,0,0,1-2.892-.5,8.689,8.689,0,0,1-2.652-1.416l1.3-2.088a7.243,7.243,0,0,0,4.32,1.68,2.252,2.252,0,0,0,1.44-.42,1.307,1.307,0,0,0,.528-1.068q0-.96-2.544-1.728a2.946,2.946,0,0,0-.288-.1q-3.984-1.08-3.984-3.6a3.416,3.416,0,0,1,1.38-2.844,5.7,5.7,0,0,1,3.588-1.068,7.465,7.465,0,0,1,4.176,1.3L210.96-9.672a6.014,6.014,0,0,0-3.384-1.032,3.086,3.086,0,0,0-1.56.348,1.132,1.132,0,0,0-.6,1.044.954.954,0,0,0,.624.912,6.033,6.033,0,0,0,1.212.408q.78.192,1.38.384t1.164.432a7.54,7.54,0,0,1,1.212.672A3,3,0,0,1,212.3-3.816ZM218.28,0h-2.688V-17.808h2.688Zm14.472,0H230.3V-1.7a5.252,5.252,0,0,1-4.248,1.9,4.873,4.873,0,0,1-3.3-1.128,3.778,3.778,0,0,1-1.308-3.012,3.17,3.17,0,0,1,1.392-2.82,6.667,6.667,0,0,1,3.768-.936h3.48v-.48q0-2.544-2.832-2.544a6.64,6.64,0,0,0-3.7,1.3l-1.2-1.68a8.266,8.266,0,0,1,5.28-1.848,5.723,5.723,0,0,1,3.684,1.14,4.316,4.316,0,0,1,1.428,3.588Zm-2.688-4.752v-1.08H227.04q-2.9,0-2.9,1.824a1.622,1.622,0,0,0,.72,1.428,3.518,3.518,0,0,0,2,.492,3.636,3.636,0,0,0,2.244-.72A2.3,2.3,0,0,0,230.064-4.752Zm9.36-2.16V0h-2.688V-12.768h2.688v2.328a4.261,4.261,0,0,1,1.74-1.848,4.932,4.932,0,0,1,2.508-.672,4.059,4.059,0,0,1,4.1,2.5,5.731,5.731,0,0,1,4.728-2.5A4.746,4.746,0,0,1,256-11.64a5.139,5.139,0,0,1,1.332,3.816V0H254.64V-7.008q0-3.528-2.928-3.528a3.551,3.551,0,0,0-2.388.876A3.317,3.317,0,0,0,248.256-7.1V0h-2.688V-7.008a4.435,4.435,0,0,0-.648-2.676,2.4,2.4,0,0,0-2.04-.852,3.517,3.517,0,0,0-2.424.924A3.436,3.436,0,0,0,239.424-6.912Z" transform="translate(311.014 612.516)" fill="#d8b600"/>
    <g id="Group_233" data-name="Group 233" transform="translate(371.598 367.666)">
      <g id="Group_207" data-name="Group 207" transform="translate(0)">
        <g id="Group_206" data-name="Group 206">
          <path id="Path_223" data-name="Path 223" d="M551.7,383.028s3.966,18.252,40.234,39.739c27.016,16.006,42.02,33.345,13.005,59.212,0,0,16.7-19.571,8.794-34.011-6.922-12.649-26.108-19.98-42.325-35.583C556.859,398.387,553.343,391.445,551.7,383.028Z" transform="translate(-482.697 -373.544)" fill="#d8b600"/>
          <path id="Path_224" data-name="Path 224" d="M508.934,383.028s-3.966,18.252-40.234,39.739c-27.016,16.006-42.02,33.345-13.005,59.212,0,0-16.7-19.571-8.794-34.011,6.923-12.649,26.107-19.98,42.325-35.583C503.776,398.387,507.291,391.445,508.934,383.028Z" transform="translate(-439.93 -373.544)" fill="#d8b600"/>
          <path id="Path_225" data-name="Path 225" d="M550.41,373.012a2.946,2.946,0,0,1-1.714-5.346,3.308,3.308,0,1,0,4.552,3.158A2.944,2.944,0,0,1,550.41,373.012Z" transform="translate(-480.76 -367.666)" fill="#d8b600"/>
          <path id="Path_226" data-name="Path 226" d="M551.143,377.5l-.324,3.623s.327.676.545.676.545-.676.545-.676l-.324-3.623Z" transform="translate(-482.359 -371.429)" fill="#d8b600"/>
          <rect id="Rectangle_42" data-name="Rectangle 42" width="1.818" height="0.298" rx="0.131" transform="translate(68.095 9.536)" fill="#d8b600"/>
          <rect id="Rectangle_43" data-name="Rectangle 43" width="1.613" height="0.298" rx="0.131" transform="translate(68.197 8.844)" fill="#d8b600"/>
          <rect id="Rectangle_44" data-name="Rectangle 44" width="1.478" height="0.298" rx="0.131" transform="translate(68.265 8.151)" fill="#d8b600"/>
          <rect id="Rectangle_45" data-name="Rectangle 45" width="1.304" height="0.298" rx="0.131" transform="translate(68.352 7.459)" fill="#d8b600"/>
          <rect id="Rectangle_46" data-name="Rectangle 46" width="1.089" height="0.298" rx="0.131" transform="translate(68.459 6.766)" fill="#d8b600"/>
        </g>
      </g>
      <g id="Group_215" data-name="Group 215" transform="translate(9.01 77.632)">
        <g id="Group_214" data-name="Group 214">
          <g id="Group_209" data-name="Group 209" transform="translate(0 4.352)">
            <g id="Group_208" data-name="Group 208">
              <path id="Path_227" data-name="Path 227" d="M510.648,532.778l-43.255-30.694a8.789,8.789,0,0,0-11.108.766l-1.763,1.658,86.288,53.207h8.8Z" transform="translate(-454.523 -500.463)" fill="#d8b600"/>
              <path id="Path_228" data-name="Path 228" d="M533.823,532.858l42.956-30.483a9.236,9.236,0,0,1,11.673.805l1.5,1.408L503.661,557.8h-8.8Z" transform="translate(-469.959 -500.543)" fill="#d8b600"/>
            </g>
          </g>
          <g id="Group_210" data-name="Group 210" transform="translate(15.449 0.884)">
            <path id="Path_229" data-name="Path 229" d="M479.547,495.77l.641-.417a3.135,3.135,0,0,1,3.675.183l40.229,32.316Z" transform="translate(-479.547 -494.844)" fill="#d8b600"/>
          </g>
          <g id="Group_211" data-name="Group 211" transform="translate(22.94)">
            <path id="Path_230" data-name="Path 230" d="M491.68,493.991h0a3.136,3.136,0,0,1,3.91.227l29.244,26.312Z" transform="translate(-491.68 -493.413)" fill="#d8b600"/>
          </g>
          <g id="Group_212" data-name="Group 212" transform="translate(59.994 0.884)">
            <path id="Path_231" data-name="Path 231" d="M596.247,495.77l-.641-.417a3.134,3.134,0,0,0-3.675.183L551.7,527.852Z" transform="translate(-551.701 -494.844)" fill="#d8b600"/>
          </g>
          <g id="Group_213" data-name="Group 213" transform="translate(63.895)">
            <path id="Path_232" data-name="Path 232" d="M591.173,493.991h0a3.136,3.136,0,0,0-3.91.227l-29.244,26.312Z" transform="translate(-558.019 -493.413)" fill="#d8b600"/>
          </g>
        </g>
      </g>
      <g id="Group_232" data-name="Group 232" transform="translate(38.093 10.117)">
        <g id="Group_231" data-name="Group 231">
          <g id="Group_218" data-name="Group 218" transform="translate(49.59 31.73)">
            <g id="Group_216" data-name="Group 216" transform="translate(6.282)">
              <rect id="Rectangle_47" data-name="Rectangle 47" width="0.256" height="8.97" fill="#d8b600"/>
            </g>
            <g id="Group_217" data-name="Group 217" transform="translate(0 8.779)">
              <path id="Path_233" data-name="Path 233" d="M588.367,467.7a.637.637,0,0,1-.414-1.121,2.517,2.517,0,0,0-.257-.315,3.523,3.523,0,0,0-.72-.458A7.034,7.034,0,0,1,584.657,464a2.042,2.042,0,0,1-.466-1.679,4.08,4.08,0,0,1,0-7.277,2.043,2.043,0,0,1,.466-1.679,7.03,7.03,0,0,1,2.319-1.8,3.526,3.526,0,0,0,.72-.458,2.517,2.517,0,0,0,.257-.315.637.637,0,1,1,.827,0,2.574,2.574,0,0,0,.258.315,3.54,3.54,0,0,0,.72.458,7.038,7.038,0,0,1,2.319,1.8,2.044,2.044,0,0,1,.466,1.679,4.08,4.08,0,0,1,0,7.277,2.043,2.043,0,0,1-.466,1.679,7.035,7.035,0,0,1-2.319,1.805,3.538,3.538,0,0,0-.72.458,2.574,2.574,0,0,0-.258.315.63.63,0,0,1,.223.485A.638.638,0,0,1,588.367,467.7Zm0-.76-.018,0a.122.122,0,0,0-.1.121.123.123,0,1,0,.247,0,.122.122,0,0,0-.1-.121Zm0-15.85a3.1,3.1,0,0,1-.3.364,3.628,3.628,0,0,1-.846.555,6.6,6.6,0,0,0-2.162,1.671,1.514,1.514,0,0,0-.331,1.411l.056.191-.17.1a3.608,3.608,0,0,0,0,6.6l.17.1-.056.191a1.514,1.514,0,0,0,.331,1.411,6.6,6.6,0,0,0,2.162,1.671,3.607,3.607,0,0,1,.846.555,3.1,3.1,0,0,1,.3.364,3,3,0,0,1,.3-.364,3.6,3.6,0,0,1,.845-.555,6.6,6.6,0,0,0,2.162-1.671,1.515,1.515,0,0,0,.332-1.411l-.056-.191.17-.1a3.608,3.608,0,0,0,0-6.6l-.17-.1L592,455.1a1.515,1.515,0,0,0-.332-1.411,6.592,6.592,0,0,0-2.162-1.671,3.624,3.624,0,0,1-.845-.555A3,3,0,0,1,588.367,451.094Zm0-.912a.124.124,0,0,0-.123.123.122.122,0,0,0,.1.121l.018,0,.019,0a.122.122,0,0,0,.1-.121A.124.124,0,0,0,588.367,450.182Z" transform="translate(-581.957 -449.669)" fill="#d8b600"/>
            </g>
          </g>
          <g id="Group_221" data-name="Group 221" transform="translate(0 30.967)">
            <g id="Group_219" data-name="Group 219" transform="translate(5.15)">
              <rect id="Rectangle_48" data-name="Rectangle 48" width="0.21" height="7.354" fill="#d8b600"/>
            </g>
            <g id="Group_220" data-name="Group 220" transform="translate(0 7.197)">
              <path id="Path_234" data-name="Path 234" d="M506.887,460.656a.522.522,0,0,1-.339-.919,2.031,2.031,0,0,0-.211-.259,2.848,2.848,0,0,0-.59-.375,5.772,5.772,0,0,1-1.9-1.48,1.674,1.674,0,0,1-.382-1.377,3.344,3.344,0,0,1,0-5.966,1.674,1.674,0,0,1,.382-1.377,5.764,5.764,0,0,1,1.9-1.48,2.846,2.846,0,0,0,.59-.375,2.073,2.073,0,0,0,.211-.259.522.522,0,1,1,.678,0,2.134,2.134,0,0,0,.211.259,2.882,2.882,0,0,0,.59.375,5.766,5.766,0,0,1,1.9,1.48,1.675,1.675,0,0,1,.382,1.377,3.344,3.344,0,0,1,0,5.966,1.675,1.675,0,0,1-.382,1.377,5.767,5.767,0,0,1-1.9,1.48,2.885,2.885,0,0,0-.59.375,2.09,2.09,0,0,0-.211.259.516.516,0,0,1,.183.4A.523.523,0,0,1,506.887,460.656Zm0-.623-.015,0a.1.1,0,0,0-.086.1.1.1,0,1,0,.2,0,.1.1,0,0,0-.086-.1Zm0-12.994a2.5,2.5,0,0,1-.245.3,2.96,2.96,0,0,1-.693.455,5.418,5.418,0,0,0-1.772,1.37,1.241,1.241,0,0,0-.272,1.156l.046.157-.14.084a2.957,2.957,0,0,0,0,5.408l.14.084-.046.156a1.242,1.242,0,0,0,.272,1.157,5.418,5.418,0,0,0,1.772,1.37,2.961,2.961,0,0,1,.693.455,2.453,2.453,0,0,1,.245.3,2.518,2.518,0,0,1,.245-.3,2.961,2.961,0,0,1,.693-.455,5.413,5.413,0,0,0,1.772-1.37,1.242,1.242,0,0,0,.272-1.157l-.046-.156.14-.084a2.957,2.957,0,0,0,0-5.408l-.14-.084.046-.156a1.242,1.242,0,0,0-.272-1.157,5.413,5.413,0,0,0-1.772-1.37,2.96,2.96,0,0,1-.693-.455A2.571,2.571,0,0,1,506.887,447.039Zm0-.748a.1.1,0,0,0-.1.1.1.1,0,0,0,.086.1l.015,0,.015,0a.1.1,0,0,0,.086-.1A.1.1,0,0,0,506.887,446.291Z" transform="translate(-501.632 -445.871)" fill="#d8b600"/>
            </g>
          </g>
          <g id="Group_222" data-name="Group 222" transform="translate(30.754)">
            <rect id="Rectangle_49" data-name="Rectangle 49" width="0.313" height="30.52" fill="#d8b600"/>
          </g>
          <g id="Group_229" data-name="Group 229" transform="translate(23.888 29.608)">
            <g id="Group_226" data-name="Group 226" transform="translate(1.025 13.588)">
              <g id="Group_223" data-name="Group 223">
                <path id="Path_235" data-name="Path 235" d="M546.219,454.022h-4.233v8.5h.667V457.1a.759.759,0,0,1-.033-1.031c.45-.578,1.1-.758,1.279-.953a.226.226,0,1,1,.409,0c.184.2.829.375,1.279.953a.759.759,0,0,1-.033,1.031v5.426h.667Z" transform="translate(-541.986 -454.022)" fill="#d8b600"/>
              </g>
              <g id="Group_224" data-name="Group 224" transform="translate(3.868)">
                <path id="Path_236" data-name="Path 236" d="M552.486,454.022h-4.234v8.5h.667V457.1a.758.758,0,0,1-.033-1.031c.449-.578,1.095-.758,1.278-.953a.227.227,0,1,1,.41,0c.183.2.829.375,1.278.953a.758.758,0,0,1-.033,1.031v5.426h.667Z" transform="translate(-548.252 -454.022)" fill="#d8b600"/>
              </g>
              <g id="Group_225" data-name="Group 225" transform="translate(7.806)">
                <path id="Path_237" data-name="Path 237" d="M558.863,454.022H554.63v8.5h.667V457.1a.759.759,0,0,1-.033-1.031c.45-.578,1.1-.758,1.279-.953a.724.724,0,0,0,.2-.323.717.717,0,0,0,.2.323c.183.2.828.375,1.278.953a.759.759,0,0,1-.033,1.031v5.426h.667Z" transform="translate(-554.63 -454.022)" fill="#d8b600"/>
              </g>
            </g>
            <g id="Group_227" data-name="Group 227" transform="translate(0.336 1.24)">
              <path id="Path_238" data-name="Path 238" d="M553.532,440.172c-1.8-2.786-4.394-3.653-5.131-4.592a3.708,3.708,0,0,1-.822-1.559,3.717,3.717,0,0,1-.823,1.559c-.737.939-3.326,1.806-5.13,4.592a4.2,4.2,0,0,0,.19,5.037h11.527A4.2,4.2,0,0,0,553.532,440.172Z" transform="translate(-540.87 -434.021)" fill="#d8b600"/>
            </g>
            <g id="Group_228" data-name="Group 228" transform="translate(0.487 21.64)">
              <path id="Path_239" data-name="Path 239" d="M541.719,468.381c1.8,2.787,4.394,3.654,5.13,4.593a3.716,3.716,0,0,1,.823,1.559,3.709,3.709,0,0,1,.822-1.559c.737-.939,3.326-1.806,5.131-4.593a4.785,4.785,0,0,0,.6-1.317H541.114A4.772,4.772,0,0,0,541.719,468.381Z" transform="translate(-541.114 -467.064)" fill="#d8b600"/>
            </g>
            <path id="Path_240" data-name="Path 240" d="M552.109,432.993a.981.981,0,1,0-.98.98A.981.981,0,0,0,552.109,432.993Z" transform="translate(-544.084 -432.012)" fill="#d8b600"/>
            <rect id="Rectangle_50" data-name="Rectangle 50" width="14.09" height="1.331" transform="translate(0 12.35)" fill="#d8b600"/>
            <path id="Path_241" data-name="Path 241" d="M550.148,478.87a.981.981,0,1,0,.981-.98A.981.981,0,0,0,550.148,478.87Z" transform="translate(-544.084 -449.566)" fill="#d8b600"/>
            <rect id="Rectangle_51" data-name="Rectangle 51" width="14.09" height="1.331" transform="translate(0 21.179)" fill="#d8b600"/>
            <rect id="Rectangle_52" data-name="Rectangle 52" width="0.201" height="4.59" transform="translate(6.944 30.015)" fill="#d8b600"/>
            <circle id="Ellipse_60" data-name="Ellipse 60" cx="0.595" cy="0.595" r="0.595" transform="translate(6.45 31.79)" fill="#d8b600"/>
            <path id="Path_242" data-name="Path 242" d="M551.422,487.053l-.507,1.267.507,1.267.507-1.267Z" transform="translate(-544.377 -453.073)" fill="#d8b600"/>
          </g>
          <g id="Group_230" data-name="Group 230" transform="translate(29.787 17.48)">
            <path id="Path_243" data-name="Path 243" d="M552.031,413.141a.774.774,0,1,0-.774.774A.775.775,0,0,0,552.031,413.141Z" transform="translate(-550.111 -412.367)" fill="#d8b600"/>
            <path id="Path_244" data-name="Path 244" d="M552.031,422.828a.774.774,0,1,0-.774.774A.774.774,0,0,0,552.031,422.828Z" transform="translate(-550.111 -416.074)" fill="#d8b600"/>
            <path id="Path_245" data-name="Path 245" d="M552.173,417.754a1.146,1.146,0,1,0-1.146,1.146A1.147,1.147,0,0,0,552.173,417.754Z" transform="translate(-549.88 -413.99)" fill="#d8b600"/>
          </g>
          <path id="Path_246" data-name="Path 246" d="M577.973,443.919l-1.166.741-.051,1.381-1.065-.88-1.329.379.508-1.285-.771-1.147,1.379.086.852-1.087.344,1.338Z" transform="translate(-529.361 -406.266)" fill="#d8b600"/>
          <path id="Path_247" data-name="Path 247" d="M565.668,474.527l.187.776.745.286-.68.418-.041.8-.607-.517-.771.207.3-.737-.435-.669.8.062Z" transform="translate(-525.638 -418.672)" fill="#d8b600"/>
          <path id="Path_248" data-name="Path 248" d="M527.433,454.893l1.365,2.126,2.526.081-1.6,1.956.7,2.427-2.354-.917-2.091,1.419.145-2.523-2-1.55,2.444-.642Z" transform="translate(-510.241 -411.159)" fill="#d8b600"/>
          <path id="Path_249" data-name="Path 249" d="M532.245,432.178l.187.776.745.286-.68.418-.041.8-.607-.517-.771.207.3-.737-.435-.669.8.062Z" transform="translate(-512.849 -402.467)" fill="#d8b600"/>
          <path id="Path_250" data-name="Path 250" d="M562.785,418.479l.187.776.745.286-.68.418-.041.8-.607-.517-.771.207.3-.738-.435-.669.8.062Z" transform="translate(-524.535 -397.226)" fill="#d8b600"/>
        </g>
      </g>
    </g>
  </g>
</svg>
