<svg xmlns="http://www.w3.org/2000/svg" width="110" height="110" viewBox="0 0 110 110">
  <g id="Group_264" data-name="Group 264" transform="translate(-140 -1672)">
    <g id="Group_39" data-name="Group 39" transform="translate(-17 242)">
      <g id="Ellipse_8" data-name="Ellipse 8" transform="translate(157 1430)" fill="none" stroke="#d8b600" stroke-width="3">
        <circle cx="55" cy="55" r="55" stroke="none"/>
        <circle cx="55" cy="55" r="53.5" fill="none"/>
      </g>
      <g id="iconfinder_calendar_2318451" transform="translate(114.9 1378.8)">
        <g id="Group_44" data-name="Group 44" transform="translate(80.949 92.898)">
          <path id="Path_66" data-name="Path 66" d="M146.871,153.895l-2.371-2.371,2.86-2.848V141H150.7v9.057Z" transform="translate(-144.5 -141)" fill="#d8b600"/>
        </g>
        <g id="Group_45" data-name="Group 45" transform="translate(78.786 99.584)">
          <path id="Path_67" data-name="Path 67" d="M163.6,222.48H126.8V206.358h3.349v12.773h30.116V199.049h-15.5V195.7H163.6Z" transform="translate(-126.8 -195.7)" fill="#d8b600"/>
        </g>
        <g id="Group_46" data-name="Group 46" transform="translate(97.058 92.898)">
          <path id="Path_68" data-name="Path 68" d="M294.829,151.035h-3.337v-6.686H276.3V141h18.529Z" transform="translate(-276.3 -141)" fill="#d8b600"/>
        </g>
        <g id="Group_47" data-name="Group 47" transform="translate(72.1 86.2)">
          <path id="Path_69" data-name="Path 69" d="M85.484,112.98a13.39,13.39,0,1,1,13.384-13.4A13.4,13.4,0,0,1,85.484,112.98Zm0-23.431A10.035,10.035,0,1,0,95.518,99.584,10.041,10.041,0,0,0,85.484,89.549Z" transform="translate(-72.1 -86.2)" fill="#d8b600"/>
        </g>
        <g id="Group_48" data-name="Group 48" transform="translate(105.553 116.316)">
          <rect id="Rectangle_10" data-name="Rectangle 10" width="3.349" height="3.349" fill="#d8b600"/>
        </g>
        <g id="Group_49" data-name="Group 49" transform="translate(105.553 109.631)">
          <rect id="Rectangle_11" data-name="Rectangle 11" width="3.349" height="3.349" transform="translate(0 0)" fill="#d8b600"/>
        </g>
        <g id="Group_50" data-name="Group 50" transform="translate(98.867 109.631)">
          <rect id="Rectangle_12" data-name="Rectangle 12" width="3.349" height="3.349" transform="translate(0 0)" fill="#d8b600"/>
        </g>
        <g id="Group_51" data-name="Group 51" transform="translate(98.867 116.316)">
          <rect id="Rectangle_13" data-name="Rectangle 13" width="3.349" height="3.349" fill="#d8b600"/>
        </g>
        <g id="Group_52" data-name="Group 52" transform="translate(92.169 116.316)">
          <rect id="Rectangle_14" data-name="Rectangle 14" width="3.349" height="3.349" transform="translate(0)" fill="#d8b600"/>
        </g>
        <g id="Group_53" data-name="Group 53" transform="translate(85.484 116.316)">
          <rect id="Rectangle_15" data-name="Rectangle 15" width="3.349" height="3.349" transform="translate(0)" fill="#d8b600"/>
        </g>
      </g>
    </g>
  </g>
</svg>
