<svg xmlns="http://www.w3.org/2000/svg" width="110" height="110" viewBox="0 0 110 110">
  <g id="Group_265" data-name="Group 265" transform="translate(-140 -1840)">
    <g id="Group_39" data-name="Group 39" transform="translate(-17 410)">
      <g id="Ellipse_8" data-name="Ellipse 8" transform="translate(157 1430)" fill="none" stroke="#00613e" stroke-width="3">
        <circle cx="55" cy="55" r="55" stroke="none"/>
        <circle cx="55" cy="55" r="53.5" fill="none"/>
      </g>
      <g id="Icons_with_numbers" data-name="Icons with numbers" transform="translate(185.691 1464.025)">
        <g id="Group" transform="translate(1 2.975)">
          <path id="Rectangle_310" data-name="Rectangle 310" d="M817,250.252V279c0-3.806,7.061-7.18,12.577-7.18s12.577,3.795,12.577,7.18V250.252c0-3.971-7-7.277-12.577-7.277S817,246.281,817,250.252Zm3.594,1.437c0-2.778,5-5.1,8.984-5.1s8.984,2.318,8.984,5.1v20.124c0-2.368-5.045-3.576-8.984-3.576s-8.984.913-8.984,3.576Zm21.561-1.437c0-3.971,7-7.277,12.577-7.277s12.577,3.306,12.577,7.277V279c0-3.385-7.062-7.18-12.577-7.18s-12.577,3.374-12.577,7.18Zm3.594,1.437v20.124c0-2.663,5.045-3.576,8.984-3.576s8.984,1.207,8.984,3.576V251.689c0-2.778-5-5.1-8.984-5.1S845.748,248.911,845.748,251.689Zm0,0" transform="translate(-817 -242.975)" fill="#00613e" fill-rule="evenodd"/>
        </g>
      </g>
    </g>
  </g>
</svg>
