<svg xmlns="http://www.w3.org/2000/svg" xmlns:xlink="http://www.w3.org/1999/xlink" width="1783.178" height="451" viewBox="0 0 1783.178 451"><defs><clipPath id="a"><rect width="1783.178" height="451" transform="translate(99 6211)" fill="#fff"/></clipPath></defs><g><g transform="translate(-99 -6211)" clip-path="url(#a)"><g transform="translate(-180.898 6057.143)"><path d="M191.484,995.049l1107.5,2.218c233.874,3.665,320.371-37.991,406.851-230.907,0,0,195.737-478.728,245.711-601.84s-67.8-179.511-195.05-165.007S192.73,179.976,192.73,179.976C86.136,180.137-.386,252.483-.522,341.565l-.753,492.48C-1.412,923.126,84.889,995.21,191.484,995.049Z" transform="translate(1944.775 1465.17) rotate(-172)" fill="#ebebeb"/><path d="M191.743,995.729l1120.612-.061c236.637,3.188,324.243-38.692,412.137-231.994,0,0,199.022-479.649,249.837-603S1906.091-18.887,1777.3-4.105,194.65,179.773,194.65,179.773C86.793,180.154-.9,252.756-1.218,341.934L-2.975,834.948C-3.293,924.126,83.885,996.11,191.743,995.729Z" transform="translate(1917.653 1611.922) rotate(-160)" fill="#002e1e"/></g></g></g></svg>