<svg xmlns="http://www.w3.org/2000/svg" width="363.499" height="102.007" viewBox="0 0 363.499 102.007"><g transform="translate(-465.241 -74.59)"><text transform="translate(574.739 148.689)" fill="#fff" font-size="38" font-family="Montserrat-Light, Montserrat" font-weight="300"><tspan x="0" y="0">Learn</tspan><tspan y="0" font-family="Montserrat-Regular, Montserrat" font-weight="400">Qura’an</tspan></text><text transform="translate(630.849 171.575)" fill="#fff" font-size="18" font-family="Montserrat-Regular, Montserrat" letter-spacing="0.01em"><tspan x="0" y="0">...and we teach islam</tspan></text><g transform="translate(465.241 74.59)"><path d="M577.012,89.951s2.906,13.372,29.476,29.114c19.792,11.726,30.784,24.429,9.528,43.379,0,0,12.233-14.338,6.443-24.917-5.072-9.266-19.126-14.638-31.008-26.068C580.79,101.2,578.215,96.118,577.012,89.951Z" transform="translate(-526.459 -83.003)" fill="#fff"/><path d="M515.794,89.951s-2.905,13.372-29.476,29.114c-19.792,11.726-30.784,24.429-9.528,43.379,0,0-12.233-14.338-6.443-24.917,5.071-9.266,19.127-14.638,31.008-26.068C512.016,101.2,514.591,96.118,515.794,89.951Z" transform="translate(-465.241 -83.003)" fill="#fff"/><path d="M574.713,78.506a2.158,2.158,0,0,1-1.256-3.916,2.423,2.423,0,1,0,3.335,2.313A2.156,2.156,0,0,1,574.713,78.506Z" transform="translate(-523.686 -74.59)" fill="#fff"/><path d="M576.367,84.425l-.237,2.654s.24.495.4.495.4-.495.4-.495l-.237-2.654Z" transform="translate(-525.976 -79.977)" fill="#fff"/><rect width="1.332" height="0.219" rx="0.109" transform="translate(49.887 6.986)" fill="#fff"/><rect width="1.182" height="0.219" rx="0.109" transform="translate(49.962 6.479)" fill="#fff"/><rect width="1.083" height="0.219" rx="0.109" transform="translate(50.012 5.971)" fill="#fff"/><rect width="0.955" height="0.219" rx="0.109" transform="translate(50.076 5.464)" fill="#fff"/><rect width="0.798" height="0.219" rx="0.109" transform="translate(50.154 4.957)" fill="#fff"/></g><g transform="translate(471.841 131.464)"><g transform="translate(0)"><g transform="translate(0 3.188)"><path d="M520.952,231.061l-31.689-22.487a6.439,6.439,0,0,0-8.138.561l-1.291,1.215,63.215,38.981h6.444Z" transform="translate(-479.834 -207.386)" fill="#fff"/><path d="M548.718,231.175l31.471-22.332a6.766,6.766,0,0,1,8.551.59l1.1,1.032L526.62,249.445h-6.443Z" transform="translate(-501.93 -207.5)" fill="#fff"/></g><g transform="translate(11.318 0.647)"><path d="M504.858,202.446l.47-.306a2.3,2.3,0,0,1,2.692.134l29.473,23.675Z" transform="translate(-504.858 -201.768)" fill="#fff"/></g><g transform="translate(16.806)"><path d="M516.991,200.76h0a2.3,2.3,0,0,1,2.865.166L541.28,220.2Z" transform="translate(-516.991 -200.337)" fill="#fff"/></g><g transform="translate(43.953 0.647)"><path d="M609.647,202.446l-.469-.306a2.3,2.3,0,0,0-2.692.134l-29.473,23.675Z" transform="translate(-577.012 -201.768)" fill="#fff"/></g><g transform="translate(46.81)"><path d="M607.62,200.76h0a2.3,2.3,0,0,0-2.865.166L583.33,220.2Z" transform="translate(-583.33 -200.337)" fill="#fff"/></g></g></g><g transform="translate(493.148 82.002)"><g transform="translate(0 0)"><g transform="translate(36.33 23.246)"><g transform="translate(4.602)"><rect width="0.188" height="6.572" fill="#fff"/></g><g transform="translate(0 6.431)"><path d="M611.964,169.8a.467.467,0,0,1-.3-.821,1.84,1.84,0,0,0-.189-.231,2.57,2.57,0,0,0-.527-.336,5.151,5.151,0,0,1-1.7-1.322,1.5,1.5,0,0,1-.341-1.23,2.989,2.989,0,0,1,0-5.331,1.5,1.5,0,0,1,.341-1.23,5.153,5.153,0,0,1,1.7-1.323,2.569,2.569,0,0,0,.527-.336,1.84,1.84,0,0,0,.189-.231.466.466,0,1,1,.606,0,1.867,1.867,0,0,0,.189.232,2.588,2.588,0,0,0,.527.335,5.152,5.152,0,0,1,1.7,1.323,1.5,1.5,0,0,1,.341,1.23,2.988,2.988,0,0,1,0,5.331,1.5,1.5,0,0,1-.341,1.23,5.15,5.15,0,0,1-1.7,1.322,2.567,2.567,0,0,0-.527.336,1.834,1.834,0,0,0-.189.231.467.467,0,0,1-.3.821Zm0-.557-.014,0a.089.089,0,0,0-.077.088.09.09,0,1,0,.181,0,.089.089,0,0,0-.077-.088Zm0-11.612a2.235,2.235,0,0,1-.218.267,2.636,2.636,0,0,1-.62.407,4.839,4.839,0,0,0-1.583,1.224,1.108,1.108,0,0,0-.243,1.033l.042.14-.125.075a2.643,2.643,0,0,0,0,4.833l.125.075-.042.139a1.109,1.109,0,0,0,.243,1.034,4.837,4.837,0,0,0,1.583,1.224,2.65,2.65,0,0,1,.62.407,2.236,2.236,0,0,1,.218.267,2.281,2.281,0,0,1,.219-.267,2.649,2.649,0,0,1,.62-.407,4.833,4.833,0,0,0,1.583-1.224,1.109,1.109,0,0,0,.243-1.033l-.042-.139.125-.075a2.643,2.643,0,0,0,0-4.833l-.125-.075.042-.14a1.109,1.109,0,0,0-.243-1.033,4.839,4.839,0,0,0-1.583-1.224,2.635,2.635,0,0,1-.62-.407A2.28,2.28,0,0,1,611.964,157.636Zm0-.668a.091.091,0,0,0-.09.09.09.09,0,0,0,.077.089l.014,0,.014,0a.09.09,0,0,0-.014-.179Z" transform="translate(-607.268 -156.592)" fill="#fff"/></g></g><g transform="translate(0 22.687)"><g transform="translate(3.773)"><rect width="0.154" height="5.388" fill="#fff"/></g><g transform="translate(0 5.273)"><path d="M530.793,163.626a.383.383,0,0,1-.383-.382.378.378,0,0,1,.134-.291,1.564,1.564,0,0,0-.155-.19,2.134,2.134,0,0,0-.432-.275,4.219,4.219,0,0,1-1.393-1.084,1.227,1.227,0,0,1-.28-1.008,2.451,2.451,0,0,1,0-4.371,1.228,1.228,0,0,1,.28-1.009,4.23,4.23,0,0,1,1.393-1.084,2.114,2.114,0,0,0,.432-.275,1.532,1.532,0,0,0,.155-.189.378.378,0,0,1-.134-.291.382.382,0,1,1,.631.291,1.48,1.48,0,0,0,.154.189,2.112,2.112,0,0,0,.432.275,4.23,4.23,0,0,1,1.393,1.084,1.228,1.228,0,0,1,.28,1.009,2.451,2.451,0,0,1,0,4.371,1.227,1.227,0,0,1-.28,1.008,4.219,4.219,0,0,1-1.393,1.084,2.132,2.132,0,0,0-.432.275,1.51,1.51,0,0,0-.154.19.382.382,0,0,1-.248.673Zm0-.456-.011,0a.073.073,0,0,0-.063.072.074.074,0,0,0,.149,0,.073.073,0,0,0-.063-.072Zm0-9.52a1.853,1.853,0,0,1-.179.219,2.166,2.166,0,0,1-.508.333,3.967,3.967,0,0,0-1.3,1,.91.91,0,0,0-.2.848l.034.114-.1.062a2.166,2.166,0,0,0,0,3.962l.1.062-.034.114a.909.909,0,0,0,.2.847,3.96,3.96,0,0,0,1.3,1,2.194,2.194,0,0,1,.508.333,1.874,1.874,0,0,1,.179.219,1.937,1.937,0,0,1,.18-.219,2.18,2.18,0,0,1,.508-.333,3.96,3.96,0,0,0,1.3-1,.909.909,0,0,0,.2-.847l-.034-.114.1-.062a2.167,2.167,0,0,0,0-3.962l-.1-.062.034-.114a.91.91,0,0,0-.2-.848,3.966,3.966,0,0,0-1.3-1,2.152,2.152,0,0,1-.508-.333A1.811,1.811,0,0,1,530.793,153.65Zm0-.547a.074.074,0,0,0-.075.074.073.073,0,0,0,.063.072l.011,0,.011,0a.073.073,0,0,0,.063-.072A.074.074,0,0,0,530.793,153.1Z" transform="translate(-526.943 -152.794)" fill="#fff"/></g></g><g transform="translate(22.531)"><rect width="0.23" height="22.359" fill="#fff"/></g><g transform="translate(17.501 21.691)"><g transform="translate(0.751 9.955)"><path d="M570.4,160.946h-3.1v6.23h.489V163.2a.555.555,0,0,1-.024-.755c.329-.423.8-.555.936-.7a.166.166,0,1,1,.3,0c.134.143.607.275.936.7a.555.555,0,0,1-.024.755v3.975h.489Z" transform="translate(-567.297 -160.946)" fill="#fff"/><g transform="translate(2.834)"><path d="M576.665,160.946h-3.1v6.23h.489V163.2a.555.555,0,0,1-.024-.755c.329-.423.8-.555.936-.7a.526.526,0,0,0,.15-.237.532.532,0,0,0,.15.237c.134.143.607.275.936.7a.555.555,0,0,1-.024.755v3.975h.489Z" transform="translate(-573.563 -160.946)" fill="#fff"/></g><g transform="translate(5.719)"><path d="M583.043,160.946h-3.1v6.23h.489V163.2a.555.555,0,0,1-.024-.755c.329-.423.8-.555.936-.7a.166.166,0,1,1,.3,0c.134.143.607.275.936.7a.555.555,0,0,1-.024.755v3.975h.489Z" transform="translate(-579.941 -160.946)" fill="#fff"/></g></g><g transform="translate(0.246 0.909)"><path d="M575.458,145.45c-1.322-2.041-3.219-2.676-3.759-3.364a.73.73,0,1,0-1.2,0c-.54.688-2.437,1.323-3.759,3.364a3.074,3.074,0,0,0,.139,3.69h8.444A3.074,3.074,0,0,0,575.458,145.45Z" transform="translate(-566.181 -140.944)" fill="#fff"/></g><g transform="translate(0.357 15.854)"><path d="M566.869,174.953c1.322,2.041,3.219,2.676,3.759,3.364a.73.73,0,1,0,1.2,0c.54-.688,2.437-1.323,3.759-3.364a3.518,3.518,0,0,0,.443-.965h-9.608A3.5,3.5,0,0,0,566.869,174.953Z" transform="translate(-566.426 -173.988)" fill="#fff"/></g><path d="M576.9,139.654a.718.718,0,1,0-.718.718A.719.719,0,0,0,576.9,139.654Z" transform="translate(-571.016 -138.935)" fill="#fff"/><rect width="10.323" height="0.975" transform="translate(0 9.048)" fill="#fff"/><path d="M575.459,185.532a.718.718,0,1,0,.719-.719A.719.719,0,0,0,575.459,185.532Z" transform="translate(-571.016 -164.063)" fill="#fff"/><rect width="10.323" height="0.975" transform="translate(0 15.516)" fill="#fff"/><rect width="0.148" height="3.363" transform="translate(5.088 21.99)" fill="#fff"/><circle cx="0.436" cy="0.436" r="0.436" transform="translate(4.726 23.29)" fill="#fff"/><path d="M576.6,193.977l-.371.928.371.928.371-.928Z" transform="translate(-571.437 -169.082)" fill="#fff"/></g><g transform="translate(21.822 12.806)"><path d="M576.928,119.858a.567.567,0,1,0-.567.567A.567.567,0,0,0,576.928,119.858Z" transform="translate(-575.521 -119.291)" fill="#fff"/><path d="M576.928,129.544a.567.567,0,1,0-.567.567A.567.567,0,0,0,576.928,129.544Z" transform="translate(-575.521 -124.596)" fill="#fff"/><path d="M576.871,124.371a.84.84,0,1,0-.84.84A.84.84,0,0,0,576.871,124.371Z" transform="translate(-575.191 -121.613)" fill="#fff"/></g><path d="M602.249,150.357l-.854.543-.037,1.011-.78-.645-.973.277.372-.941-.565-.84,1.01.063.625-.8.252.98Z" transform="translate(-566.634 -122.773)" fill="#fff"/><path d="M590.632,181.45l.137.568.546.209-.5.306-.03.584-.445-.379-.565.152.223-.54-.319-.49.583.045Z" transform="translate(-561.305 -140.53)" fill="#fff"/><path d="M551.862,161.817l1,1.558,1.85.059-1.172,1.433.516,1.778-1.725-.672-1.531,1.04.106-1.848-1.462-1.135,1.79-.47Z" transform="translate(-539.267 -129.776)" fill="#fff"/><path d="M557.209,139.1l.137.568.546.209-.5.306-.03.584-.445-.379-.565.152.223-.54-.319-.49.583.045Z" transform="translate(-542.999 -117.335)" fill="#fff"/><path d="M587.749,125.4l.137.568.546.209-.5.306-.03.584-.445-.379-.565.152.223-.54-.319-.49.583.045Z" transform="translate(-559.726 -109.832)" fill="#fff"/></g></g></g></svg>