<svg id="Group_420" data-name="Group 420" xmlns="http://www.w3.org/2000/svg" width="149.73" height="149.729" viewBox="0 0 149.73 149.729">
  <ellipse id="Ellipse_72" data-name="Ellipse 72" cx="74.865" cy="74.865" rx="74.865" ry="74.865" transform="translate(0)" fill="#ebebeb"/>
  <rect id="Rectangle_131" data-name="Rectangle 131" width="93.379" height="7.313" rx="1.714" transform="translate(27.8 114.854)" fill="#404040"/>
  <path id="Path_349" data-name="Path 349" d="M844.305,386.3h-2.84v-7.067c0-10.127-16.587-9.4-18.938-16.781-2.351,7.381-18.936,6.654-18.936,16.781V386.3h-2.842a9.094,9.094,0,0,0-9.093,9.095v43.224H853.4V395.4A9.094,9.094,0,0,0,844.305,386.3Z" transform="translate(-751.128 -332.528)" fill="#d8b600"/>
  <path id="Path_350" data-name="Path 350" d="M829.076,421.635c-2.864-2.021-5.226-1.848-7.027-2.766a22.739,22.739,0,0,1-5.9-4.709,7.833,7.833,0,0,1-6.018-2.821,13.66,13.66,0,0,1-1.756-2.3c.147.181.265.378.429.551,2.181,2.294,6.432,2.859,12.62,1.684a15.742,15.742,0,0,0,4.912-1.4c-.006-.327-.03-.649-.051-.973,1.359-.134,3.555-.536,4.818-1.782a4.307,4.307,0,0,0,1.27-3.258,20.194,20.194,0,0,1-6.327,2.921,12.224,12.224,0,0,0-.395-1.731,64.33,64.33,0,0,1-8.636,1.581c-2.97.29-4.219-2.622-3.7-8.6s.053-9.415-1.564-11.186a6.675,6.675,0,0,0,1,.092,5.644,5.644,0,1,0-6.133-5.623,5.387,5.387,0,0,0,1.867,4.027c-.1-.011-.2-.03-.305-.038a5.389,5.389,0,0,0-4.238,1.835c-3.807,3.762-7.957,13.292-6,24.19,1.221,6.792,7.208,12.769,10.232,15.328-1.4-1.69-8.73.143-9.837.743a5.1,5.1,0,0,0-1.835,2.113h29.55c3.9,0,5.461-1.268,5.461-2.569C831.513,426.167,832.684,424.185,829.076,421.635Z" transform="translate(-745.889 -313.713)" fill="#fff"/>
  <g id="Group_412" data-name="Group 412" transform="translate(101.677 18.608)">
    <path id="Path_351" data-name="Path 351" d="M820.175,363.392a1.6,1.6,0,1,1,1.6-1.6A1.6,1.6,0,0,1,820.175,363.392Z" transform="translate(-818.573 -360.183)" fill="#d8b600"/>
  </g>
  <g id="Group_413" data-name="Group 413" transform="translate(55.919 12.502)">
    <path id="Path_352" data-name="Path 352" d="M801.661,361.782a2.23,2.23,0,1,1,2.23-2.23A2.231,2.231,0,0,1,801.661,361.782Z" transform="translate(-799.433 -357.322)" fill="#d8b600"/>
  </g>
  <path id="Path_353" data-name="Path 353" d="M791.729,363.155a10.983,10.983,0,0,1-2.155,5.783,10.991,10.991,0,0,1,5.785,2.155,10.971,10.971,0,0,1,2.153-5.785A10.964,10.964,0,0,1,791.729,363.155Z" transform="translate(-757.182 -335.053)" fill="#d8b600"/>
  <path id="Path_354" data-name="Path 354" d="M823.872,366.007a10.981,10.981,0,0,1-2.153,5.785,10.965,10.965,0,0,1,5.783,2.153,10.98,10.98,0,0,1,2.153-5.783A10.982,10.982,0,0,1,823.872,366.007Z" transform="translate(-712.066 -331.05)" fill="#d8b600"/>
  <rect id="Rectangle_132" data-name="Rectangle 132" width="26.923" height="35.848" transform="translate(93.607 74.128)" fill="#6c9635"/>
  <g id="Group_414" data-name="Group 414" transform="translate(98.741 83.55)">
    <rect id="Rectangle_133" data-name="Rectangle 133" width="10.705" height="1.503" rx="0.332" fill="#fff"/>
    <rect id="Rectangle_134" data-name="Rectangle 134" width="16.392" height="1.503" rx="0.332" transform="translate(0 6.69)" fill="#fff"/>
    <rect id="Rectangle_135" data-name="Rectangle 135" width="10.705" height="1.503" rx="0.332" transform="translate(5.687 13.583)" fill="#fff"/>
  </g>
</svg>
