<svg id="Group_267" data-name="Group 267" xmlns="http://www.w3.org/2000/svg" width="147.964" height="147.965" viewBox="0 0 147.964 147.965">
  <ellipse id="Ellipse_64" data-name="Ellipse 64" cx="73.982" cy="73.982" rx="73.982" ry="73.982" transform="translate(0 0)" fill="#efefef"/>
  <path id="Path_267" data-name="Path 267" d="M688.891,339.335l-24.113-3.085a5.93,5.93,0,0,1-5.177-5.882V319.431H642.182v10.937A5.93,5.93,0,0,1,637,336.25l-24.113,3.085A14.786,14.786,0,0,0,599.981,354V365.18a73.975,73.975,0,0,0,101.822,0V354A14.787,14.787,0,0,0,688.891,339.335Z" transform="translate(-576.91 -237.521)" fill="#d8af91"/>
  <path id="Path_268" data-name="Path 268" d="M714.72,339.335l-24.113-3.085a5.93,5.93,0,0,1-5.178-5.882V319.431h-8.723v66.054h.014a73.727,73.727,0,0,0,50.911-20.306V354A14.787,14.787,0,0,0,714.72,339.335Z" transform="translate(-602.738 -237.521)" fill="#d8af91"/>
  <path id="Path_269" data-name="Path 269" d="M677.538,303.034l-4.093,2.2a21.249,21.249,0,0,1-20.148,0l-4.093-2.2a23.335,23.335,0,0,1-12.272-20.546V257.242H689.81v25.246A23.335,23.335,0,0,1,677.538,303.034Z" transform="translate(-589.349 -216.586)" fill="#efb88b"/>
  <path id="Path_270" data-name="Path 270" d="M703.2,257.242H676.706v50.535a21.232,21.232,0,0,0,10.128-2.539l4.093-2.2A23.335,23.335,0,0,0,703.2,282.488V257.242Z" transform="translate(-602.738 -216.586)" fill="#efb88b"/>
  <path id="Path_271" data-name="Path 271" d="M688.891,348.11l-20.407-2.61a24.1,24.1,0,0,1-35.185,0l-20.408,2.61a14.787,14.787,0,0,0-12.91,14.667v11.178a73.975,73.975,0,0,0,101.822,0V362.777A14.787,14.787,0,0,0,688.891,348.11Z" transform="translate(-576.91 -246.296)" fill="#ebebeb"/>
  <path id="Path_272" data-name="Path 272" d="M676.727,394.261a73.727,73.727,0,0,0,50.911-20.306V362.777a14.787,14.787,0,0,0-12.911-14.667L694.32,345.5a24.044,24.044,0,0,1-17.593,7.63v41.131Z" transform="translate(-602.745 -246.296)" fill="#ebebeb"/>
  <path id="Path_273" data-name="Path 273" d="M662.075,353.1a24.041,24.041,0,0,1-16.337-7.6l-8.807,1.126,13.945,18,12.454-11.486Q662.7,353.135,662.075,353.1Z" transform="translate(-589.348 -246.296)" fill="#dbdbdb"/>
  <path id="Path_274" data-name="Path 274" d="M676.727,353.135l12.454,11.487,13.945-18L694.32,345.5a24.048,24.048,0,0,1-16.337,7.6Q677.36,353.135,676.727,353.135Z" transform="translate(-602.745 -246.296)" fill="#dbdbdb"/>
  <path id="Path_275" data-name="Path 275" d="M691.566,253.746a30.128,30.128,0,1,0-60.255,0v22.221H636.7V261.205c6.277-7.212,14.962-11.867,24.735-11.867s18.458,4.655,24.735,11.867v14.761h5.393Z" transform="translate(-587.456 -205.267)" fill="#ebebeb"/>
  <path id="Path_276" data-name="Path 276" d="M692.468,269.045h-6.2V251.068a25.759,25.759,0,1,0-51.518,0v17.977h-6.2V251.068a31.958,31.958,0,1,1,63.917,0v17.977Z" transform="translate(-586.527 -203.749)" fill="#37474f"/>
  <g id="Group_266" data-name="Group 266" transform="translate(70.332 15.361)">
    <path id="Path_277" data-name="Path 277" d="M676.72,219.11h-.014v6.2h.014a25.789,25.789,0,0,1,25.759,25.759v17.977h6.2V251.068A31.994,31.994,0,0,0,676.72,219.11Z" transform="translate(-673.07 -219.11)" fill="#37474f"/>
    <path id="Path_278" data-name="Path 278" d="M688.857,314.616H671.225v-6.2h17.632a11.515,11.515,0,0,0,11.5-11.5h6.2A17.722,17.722,0,0,1,688.857,314.616Z" transform="translate(-671.225 -245.302)" fill="#37474f"/>
  </g>
  <path id="Path_279" data-name="Path 279" d="M630.182,291.261H623.4a9.063,9.063,0,0,1-9.063-9.064V271.661A9.063,9.063,0,0,1,623.4,262.6h6.778v28.663Z" transform="translate(-581.744 -218.389)" fill="#6c9635"/>
  <path id="Path_280" data-name="Path 280" d="M722.01,291.261h-6.778V262.6h6.778a9.063,9.063,0,0,1,9.063,9.064V282.2A9.063,9.063,0,0,1,722.01,291.261Z" transform="translate(-615.707 -218.389)" fill="#6c9635"/>
  <path id="Path_281" data-name="Path 281" d="M670.045,321.527H664.39a5.069,5.069,0,0,1-5.069-5.069h0a5.069,5.069,0,0,1,5.069-5.068h5.655a5.069,5.069,0,0,1,5.069,5.068h0A5.069,5.069,0,0,1,670.045,321.527Z" transform="translate(-596.885 -234.814)" fill="#37474f"/>
  <path id="Path_282" data-name="Path 282" d="M644.059,247.17a31.351,31.351,0,0,1,15.218-12.818c10.185-3.746,23.53,3.688,28.447,13.521" transform="translate(-591.748 -208.548)" fill="none" stroke="#ebebeb" stroke-miterlimit="10" stroke-width="1" opacity="0.57"/>
  <path id="Path_283" data-name="Path 283" d="M645.647,252.557s4.791-5.739,14.484-8.109S682.526,246.78,687.2,253" transform="translate(-592.282 -212.069)" fill="none" stroke="#ebebeb" stroke-miterlimit="10" stroke-width="1" opacity="0.57"/>
  <path id="Path_284" data-name="Path 284" d="M645.647,259.466s4.791-3.167,14.484-4.474,22.395,1.287,27.074,4.718" transform="translate(-592.282 -215.712)" fill="none" stroke="#ebebeb" stroke-miterlimit="10" stroke-width="1" opacity="0.57"/>
  <path id="Path_285" data-name="Path 285" d="M599.981,347.823v26.914a73.975,73.975,0,0,0,101.822,0V349.7l-50.871,19.667Z" transform="translate(-576.91 -247.078)" fill="#6c9635"/>
</svg>
