<svg id="Group_270" data-name="Group 270" xmlns="http://www.w3.org/2000/svg" width="147.964" height="147.965" viewBox="0 0 147.964 147.965">
  <g id="Group_268" data-name="Group 268" transform="translate(0 0)">
    <ellipse id="Ellipse_65" data-name="Ellipse 65" cx="73.982" cy="73.982" rx="73.982" ry="73.982" fill="#efefef"/>
  </g>
  <g id="Group_269" data-name="Group 269" transform="translate(66.511 25.218)">
    <path id="Path_286" data-name="Path 286" d="M995.563,244.962c-5.922,2.447-12.142,1.162-18.727-.2-6.562-1.355-13.324-2.748-20.359-.7v31.047l.175.423c5.921-2.447,12.141-1.161,18.726.2a63.278,63.278,0,0,0,12.776,1.739,26.153,26.153,0,0,0,10.161-1.938l2.23-.921V242.9Z" transform="translate(-951.669 -236.977)" fill="#d8b600"/>
    <path id="Path_287" data-name="Path 287" d="M956.441,233.97h-7.212v87.263h7.212V233.97Z" transform="translate(-949.229 -233.97)" fill="#d8b600"/>
  </g>
  <path id="Path_288" data-name="Path 288" d="M979.687,383.217a59.107,59.107,0,0,0-16.041-13.62,71.136,71.136,0,0,0-36.045-9.519l-.312,0h0a71.094,71.094,0,0,0-35.733,9.517A61.662,61.662,0,0,0,881.2,377.2a73.975,73.975,0,0,0,98.489,6.012Z" transform="translate(-859.817 -251.203)" fill="#37474f"/>
</svg>
