<svg xmlns="http://www.w3.org/2000/svg" width="147.964" height="147.965" viewBox="0 0 147.964 147.965">
  <g id="Group_265" data-name="Group 265" transform="translate(0)">
    <path id="Path_289" data-name="Path 289" d="M73.982,0A73.982,73.982,0,1,1,0,73.982,73.982,73.982,0,0,1,73.982,0Z" transform="translate(0 0)" fill="#efefef"/>
    <g id="Group_264" data-name="Group 264" transform="translate(15.907 48.231)">
      <path id="Path_263" data-name="Path 263" d="M325.3,347.085A6.946,6.946,0,0,1,322.047,334l72.5-38.359a6.945,6.945,0,1,1,6.5,12.277l-72.5,38.36A6.925,6.925,0,0,1,325.3,347.085Z" transform="translate(-295.741 -277.471)" fill="#404040"/>
      <path id="Path_264" data-name="Path 264" d="M374.478,347.089a6.909,6.909,0,0,1-3.245-.81l-72.466-38.415a6.945,6.945,0,1,1,6.506-12.272l72.466,38.415a6.946,6.946,0,0,1-3.261,13.082Z" transform="translate(-287.906 -277.454)" fill="#404040"/>
      <path id="Path_265" data-name="Path 265" d="M388.207,270.162a4.07,4.07,0,0,0-5.576-.7,28.655,28.655,0,0,1-10.857,4.993c-8.222,1.828-19.778,6.959-23.589,10.562a1.014,1.014,0,0,1-1.4,0c-3.811-3.6-15.367-8.734-23.589-10.562a28.65,28.65,0,0,1-10.857-4.993,4.07,4.07,0,0,0-5.576.7l-7.219,8.819,47.941,24.528,47.941-24.528Z" transform="translate(-289.411 -268.661)" fill="#d8b600"/>
      <g id="Group_263" data-name="Group 263" transform="translate(0 7.613)">
        <g id="Group_262" data-name="Group 262">
          <path id="Path_266" data-name="Path 266" d="M399.825,283.007a5.3,5.3,0,0,0-7.146-2.277L342.9,306.455a1.2,1.2,0,0,1-1.1,0L292.008,280.73a5.3,5.3,0,0,0-4.87,9.423l54.054,27.976a2.3,2.3,0,0,0,2.115,0l54.241-27.978A5.3,5.3,0,0,0,399.825,283.007Z" transform="translate(-284.268 -280.137)" fill="#6c9635"/>
        </g>
      </g>
    </g>
  </g>
</svg>
