<svg xmlns="http://www.w3.org/2000/svg" width="249.688" height="50.239" viewBox="0 0 249.688 50.239">
  <g id="Group_262" data-name="Group 262" transform="translate(-178.188 -257.891)">
    <path id="Path_260" data-name="Path 260" d="M4.636-26.6H6.574V-1.748H21.888V0H4.636ZM42.674-9.462H25.612A8.29,8.29,0,0,0,26.79-5.339a7.538,7.538,0,0,0,2.983,2.793,8.972,8.972,0,0,0,4.237.988,9.08,9.08,0,0,0,3.591-.7,6.993,6.993,0,0,0,2.755-2.071l1.1,1.254A8.467,8.467,0,0,1,38.209-.684a10.672,10.672,0,0,1-4.237.836A10.664,10.664,0,0,1,28.69-1.14a9.367,9.367,0,0,1-3.629-3.572A10.255,10.255,0,0,1,23.75-9.918a10.785,10.785,0,0,1,1.235-5.187,9.108,9.108,0,0,1,3.4-3.591,9.312,9.312,0,0,1,4.864-1.292A9.318,9.318,0,0,1,38.1-18.715a9.048,9.048,0,0,1,3.382,3.553,10.675,10.675,0,0,1,1.235,5.168ZM33.25-18.316a7.6,7.6,0,0,0-3.762.931,7.094,7.094,0,0,0-2.679,2.622,8.541,8.541,0,0,0-1.159,3.819h15.2a7.956,7.956,0,0,0-1.14-3.8,7.432,7.432,0,0,0-2.7-2.622A7.48,7.48,0,0,0,33.25-18.316Zm21.47-1.672a7.9,7.9,0,0,1,5.662,1.881,7.281,7.281,0,0,1,1.976,5.529V0H60.534V-3.534A6.6,6.6,0,0,1,57.76-.817a9.2,9.2,0,0,1-4.37.969,8.055,8.055,0,0,1-5.225-1.558,5.027,5.027,0,0,1-1.919-4.1,5.065,5.065,0,0,1,1.767-4.009q1.767-1.539,5.643-1.539h6.8v-1.6a5.586,5.586,0,0,0-1.5-4.218,6.091,6.091,0,0,0-4.389-1.444,10.58,10.58,0,0,0-3.781.684,9.486,9.486,0,0,0-3.059,1.824l-.95-1.368a10.559,10.559,0,0,1,3.572-2.071A12.98,12.98,0,0,1,54.72-19.988ZM53.656-1.406a7.459,7.459,0,0,0,4.2-1.14,6.932,6.932,0,0,0,2.6-3.306V-9.576H53.694a6.731,6.731,0,0,0-4.237,1.064,3.563,3.563,0,0,0-1.311,2.926A3.664,3.664,0,0,0,49.59-2.527,6.5,6.5,0,0,0,53.656-1.406ZM72.01-15.5a6.864,6.864,0,0,1,2.85-3.325,9.024,9.024,0,0,1,4.712-1.159v1.862l-.456-.038a6.594,6.594,0,0,0-5.168,2.071,8.3,8.3,0,0,0-1.862,5.757V0h-1.9V-19.836H72.01Zm22.5-4.484a7.959,7.959,0,0,1,5.89,2.166,8.436,8.436,0,0,1,2.166,6.232V0h-1.9V-11.438a7.039,7.039,0,0,0-1.691-5.092,6.276,6.276,0,0,0-4.731-1.748,7.293,7.293,0,0,0-5.51,2.09,7.763,7.763,0,0,0-2.014,5.624V0h-1.9V-19.836H86.64v4.294A7.545,7.545,0,0,1,89.7-18.81,9.422,9.422,0,0,1,94.506-19.988ZM122.892.228l-.57.038a13.7,13.7,0,0,1-9.956-3.933,13.144,13.144,0,0,1-4.028-9.8,13.144,13.144,0,0,1,4.028-9.8,13.7,13.7,0,0,1,9.956-3.933,13.7,13.7,0,0,1,9.956,3.933,13.122,13.122,0,0,1,4.028,9.785,13.463,13.463,0,0,1-2.394,7.885,13.409,13.409,0,0,1-6.384,4.959,3.939,3.939,0,0,0,3.268,1.71A5.828,5.828,0,0,0,133.627.3a5.4,5.4,0,0,0,2.109-1.976l2.546,3.534a10.15,10.15,0,0,1-7.562,3.5,8.847,8.847,0,0,1-4.674-1.368A7.389,7.389,0,0,1,122.892.228Zm6.1-20.52a8.913,8.913,0,0,0-6.669-2.812,8.913,8.913,0,0,0-6.669,2.812,9.455,9.455,0,0,0-2.717,6.821,9.455,9.455,0,0,0,2.717,6.821,8.913,8.913,0,0,0,6.669,2.812,8.913,8.913,0,0,0,6.669-2.812,9.455,9.455,0,0,0,2.717-6.821A9.455,9.455,0,0,0,128.991-20.292Zm26.5,11.02V-20.216h4.256V0H155.5V-3.686A7.574,7.574,0,0,1,152.665-.76,7.538,7.538,0,0,1,148.77.3a7.514,7.514,0,0,1-5.529-2.09,8.137,8.137,0,0,1-2.109-6.042V-20.216h4.256v11.1q0,5.586,4.636,5.586A5.569,5.569,0,0,0,153.862-5,5.441,5.441,0,0,0,155.5-9.272Zm21.014-6.954a5.647,5.647,0,0,0-4.75,2.052,8.741,8.741,0,0,0-1.6,5.51V0h-4.256V-20.216h4.256v4.066a8.809,8.809,0,0,1,2.793-3.116A6.729,6.729,0,0,1,176.7-20.52l.038,4.294ZM197.182,0h-3.876V-2.7a8.315,8.315,0,0,1-6.726,3,7.716,7.716,0,0,1-5.225-1.786,5.981,5.981,0,0,1-2.071-4.769,5.019,5.019,0,0,1,2.2-4.465,10.556,10.556,0,0,1,5.966-1.482h5.51v-.76q0-4.028-4.484-4.028a10.514,10.514,0,0,0-5.852,2.052l-1.9-2.66a13.088,13.088,0,0,1,8.36-2.926,9.062,9.062,0,0,1,5.833,1.8q2.261,1.805,2.261,5.681Zm-4.256-7.524v-1.71h-4.788q-4.6,0-4.6,2.888a2.568,2.568,0,0,0,1.14,2.261,5.569,5.569,0,0,0,3.173.779,5.758,5.758,0,0,0,3.553-1.14A3.648,3.648,0,0,0,192.926-7.524ZM202.2-22.268a1.97,1.97,0,0,1-1.026-1.805,2.477,2.477,0,0,1,.684-1.862,2.355,2.355,0,0,1,1.71-.665,2.461,2.461,0,0,1,1.729.646,2.189,2.189,0,0,1,.7,1.691,3.53,3.53,0,0,1-.684,2.033L203.072-19h-2.318ZM226.328,0h-3.876V-2.7a8.315,8.315,0,0,1-6.726,3A7.716,7.716,0,0,1,210.5-1.482a5.981,5.981,0,0,1-2.071-4.769,5.019,5.019,0,0,1,2.2-4.465A10.556,10.556,0,0,1,216.6-12.2h5.51v-.76q0-4.028-4.484-4.028a10.514,10.514,0,0,0-5.852,2.052l-1.9-2.66a13.088,13.088,0,0,1,8.36-2.926,9.062,9.062,0,0,1,5.833,1.8q2.261,1.805,2.261,5.681Zm-4.256-7.524v-1.71h-4.788q-4.6,0-4.6,2.888a2.568,2.568,0,0,0,1.14,2.261A5.569,5.569,0,0,0,217-3.306a5.758,5.758,0,0,0,3.553-1.14A3.648,3.648,0,0,0,222.072-7.524Zm14.44-3.42V0h-4.256V-20.216h4.256v3.686a7.574,7.574,0,0,1,2.831-2.926,7.538,7.538,0,0,1,3.895-1.064,7.514,7.514,0,0,1,5.529,2.09,8.137,8.137,0,0,1,2.109,6.042V0H246.62V-11.1q0-5.586-4.636-5.586a5.569,5.569,0,0,0-3.838,1.463A5.441,5.441,0,0,0,236.512-10.944Z" transform="translate(177 285.099)" fill="#fff"/>
    <path id="Path_261" data-name="Path 261" d="M1.575-.252a1.316,1.316,0,0,1-.387-.954,1.286,1.286,0,0,1,.387-.945,1.286,1.286,0,0,1,.945-.387,1.316,1.316,0,0,1,.954.387,1.271,1.271,0,0,1,.4.945,1.3,1.3,0,0,1-.4.954,1.3,1.3,0,0,1-.954.4A1.271,1.271,0,0,1,1.575-.252Zm8.082,0a1.316,1.316,0,0,1-.387-.954,1.286,1.286,0,0,1,.387-.945,1.286,1.286,0,0,1,.945-.387,1.316,1.316,0,0,1,.954.387,1.271,1.271,0,0,1,.4.945,1.3,1.3,0,0,1-.4.954,1.3,1.3,0,0,1-.954.4A1.271,1.271,0,0,1,9.657-.252Zm8.082,0a1.316,1.316,0,0,1-.387-.954,1.286,1.286,0,0,1,.387-.945,1.286,1.286,0,0,1,.945-.387,1.316,1.316,0,0,1,.954.387,1.271,1.271,0,0,1,.4.945,1.3,1.3,0,0,1-.4.954,1.3,1.3,0,0,1-.954.4A1.271,1.271,0,0,1,17.739-.252ZM33.462,0H31.626V-1.278A3.939,3.939,0,0,1,28.44.144,3.655,3.655,0,0,1,25.965-.7a2.833,2.833,0,0,1-.981-2.259,2.377,2.377,0,0,1,1.044-2.115,5,5,0,0,1,2.826-.7h2.61v-.36q0-1.908-2.124-1.908a4.98,4.98,0,0,0-2.772.972l-.9-1.26a6.2,6.2,0,0,1,3.96-1.386,4.292,4.292,0,0,1,2.763.855,3.237,3.237,0,0,1,1.071,2.691ZM31.446-3.564v-.81H29.178Q27-4.374,27-3.006a1.216,1.216,0,0,0,.54,1.071,2.638,2.638,0,0,0,1.5.369,2.727,2.727,0,0,0,1.683-.54A1.728,1.728,0,0,0,31.446-3.564Zm9.882-1.62V0H39.312V-9.576h2.016V-7.83a3.588,3.588,0,0,1,1.341-1.386,3.571,3.571,0,0,1,1.845-.5,3.559,3.559,0,0,1,2.619.99,3.854,3.854,0,0,1,1,2.862V0H46.116V-5.256q0-2.646-2.2-2.646a2.638,2.638,0,0,0-1.818.693A2.577,2.577,0,0,0,41.328-5.184ZM57.888.144A4.31,4.31,0,0,1,54.72-1.224a4.9,4.9,0,0,1-1.35-3.6,4.713,4.713,0,0,1,1.386-3.564,4.6,4.6,0,0,1,3.3-1.332A3.633,3.633,0,0,1,61.146-8.1v-5.256h2.016V0H61.146V-1.44A3.734,3.734,0,0,1,57.888.144Zm-2.5-4.887A3,3,0,0,0,56.268-2.5a2.863,2.863,0,0,0,2.07.864,2.674,2.674,0,0,0,2.016-.873,3.124,3.124,0,0,0,.828-2.241,3.286,3.286,0,0,0-.828-2.286,2.633,2.633,0,0,0-2.034-.918,2.744,2.744,0,0,0-2.07.918A3.218,3.218,0,0,0,55.386-4.743ZM81.576,0h-2.3L75.96-9.576h2.088L80.424-2.34,82.8-9.576h2.088L87.264-2.34,89.64-9.576h2.088L88.416,0h-2.3L83.844-6.552Zm23.886-3.906H97.956a2.182,2.182,0,0,0,.954,1.683,3.349,3.349,0,0,0,2.016.639,3.343,3.343,0,0,0,2.736-1.134l1.152,1.26a5.355,5.355,0,0,1-4.032,1.6A4.8,4.8,0,0,1,97.353-1.2,4.729,4.729,0,0,1,95.94-4.8a4.654,4.654,0,0,1,1.44-3.591,4.833,4.833,0,0,1,3.393-1.332,4.913,4.913,0,0,1,3.321,1.179,4.063,4.063,0,0,1,1.368,3.249ZM97.956-5.49h5.49a2.308,2.308,0,0,0-.756-1.854,2.763,2.763,0,0,0-1.863-.648,3.189,3.189,0,0,0-1.989.675A2.179,2.179,0,0,0,97.956-5.49Zm23.22-2.466V-3.1a1.579,1.579,0,0,0,.36,1.089,1.278,1.278,0,0,0,1.008.4,1.716,1.716,0,0,0,1.242-.63l.828,1.422a3.437,3.437,0,0,1-2.349.954,3.023,3.023,0,0,1-2.2-.891,3.211,3.211,0,0,1-.909-2.4V-7.956h-1.206v-1.62h1.206v-3.006h2.016v3.006h2.52v1.62Zm16.992,4.05h-7.506a2.182,2.182,0,0,0,.954,1.683,3.349,3.349,0,0,0,2.016.639,3.343,3.343,0,0,0,2.736-1.134l1.152,1.26a5.355,5.355,0,0,1-4.032,1.6A4.8,4.8,0,0,1,130.059-1.2a4.729,4.729,0,0,1-1.413-3.6,4.654,4.654,0,0,1,1.44-3.591,4.833,4.833,0,0,1,3.393-1.332A4.913,4.913,0,0,1,136.8-8.541a4.063,4.063,0,0,1,1.368,3.249ZM130.662-5.49h5.49a2.308,2.308,0,0,0-.756-1.854,2.763,2.763,0,0,0-1.863-.648,3.189,3.189,0,0,0-1.989.675A2.179,2.179,0,0,0,130.662-5.49ZM151.182,0h-1.836V-1.278A3.939,3.939,0,0,1,146.16.144,3.655,3.655,0,0,1,143.685-.7a2.833,2.833,0,0,1-.981-2.259,2.377,2.377,0,0,1,1.044-2.115,5,5,0,0,1,2.826-.7h2.61v-.36q0-1.908-2.124-1.908a4.98,4.98,0,0,0-2.772.972l-.9-1.26a6.2,6.2,0,0,1,3.96-1.386,4.292,4.292,0,0,1,2.763.855,3.237,3.237,0,0,1,1.071,2.691Zm-2.016-3.564v-.81H146.9q-2.178,0-2.178,1.368a1.217,1.217,0,0,0,.54,1.071,2.638,2.638,0,0,0,1.5.369,2.727,2.727,0,0,0,1.683-.54A1.728,1.728,0,0,0,149.166-3.564ZM161.28.144a4.835,4.835,0,0,1-3.438-1.359A4.663,4.663,0,0,1,156.4-4.77a4.622,4.622,0,0,1,1.5-3.573,5.226,5.226,0,0,1,3.663-1.377,4.97,4.97,0,0,1,3.654,1.494l-1.188,1.458a3.823,3.823,0,0,0-2.5-1.08,3.157,3.157,0,0,0-2.187.837,2.777,2.777,0,0,0-.927,2.16,3.049,3.049,0,0,0,.918,2.241,3.07,3.07,0,0,0,2.259.918,3.509,3.509,0,0,0,2.529-1.224l1.188,1.3A5.511,5.511,0,0,1,161.28.144Zm11.178-5.328V0h-2.016V-13.338h2.016V-7.83a3.2,3.2,0,0,1,1.305-1.386,3.7,3.7,0,0,1,1.881-.5,3.559,3.559,0,0,1,2.619.99,3.854,3.854,0,0,1,1,2.862V0h-2.016V-5.256q0-2.646-2.2-2.646a2.638,2.638,0,0,0-1.818.693A2.577,2.577,0,0,0,172.458-5.184ZM195.1,0h-2.016V-9.576H195.1Zm-1.89-11.484a1.229,1.229,0,0,1-.378-.9,1.229,1.229,0,0,1,.378-.9,1.229,1.229,0,0,1,.9-.378,1.229,1.229,0,0,1,.9.378,1.229,1.229,0,0,1,.378.9,1.229,1.229,0,0,1-.378.9,1.229,1.229,0,0,1-.9.378A1.229,1.229,0,0,1,193.212-11.484Zm14.67,8.622a2.694,2.694,0,0,1-.99,2.187,3.849,3.849,0,0,1-2.538.819,6.8,6.8,0,0,1-2.169-.378A6.517,6.517,0,0,1,200.2-1.3l.972-1.566a5.433,5.433,0,0,0,3.24,1.26,1.689,1.689,0,0,0,1.08-.315.98.98,0,0,0,.4-.8q0-.72-1.908-1.3a2.209,2.209,0,0,0-.216-.072q-2.988-.81-2.988-2.7a2.562,2.562,0,0,1,1.035-2.133,4.273,4.273,0,0,1,2.691-.8,5.6,5.6,0,0,1,3.132.972l-.756,1.494a4.51,4.51,0,0,0-2.538-.774,2.314,2.314,0,0,0-1.17.261.849.849,0,0,0-.45.783.715.715,0,0,0,.468.684,4.525,4.525,0,0,0,.909.306q.585.144,1.035.288t.873.324a5.654,5.654,0,0,1,.909.5A2.252,2.252,0,0,1,207.882-2.862ZM215.226,0H213.21V-13.356h2.016Zm13.716,0h-1.836V-1.278A3.939,3.939,0,0,1,223.92.144,3.655,3.655,0,0,1,221.445-.7a2.833,2.833,0,0,1-.981-2.259,2.377,2.377,0,0,1,1.044-2.115,5,5,0,0,1,2.826-.7h2.61v-.36q0-1.908-2.124-1.908a4.98,4.98,0,0,0-2.772.972l-.9-1.26a6.2,6.2,0,0,1,3.96-1.386,4.292,4.292,0,0,1,2.763.855,3.237,3.237,0,0,1,1.071,2.691Zm-2.016-3.564v-.81h-2.268q-2.178,0-2.178,1.368a1.217,1.217,0,0,0,.54,1.071,2.638,2.638,0,0,0,1.5.369,2.727,2.727,0,0,0,1.683-.54A1.728,1.728,0,0,0,226.926-3.564Zm9.882-1.62V0h-2.016V-9.576h2.016V-7.83a3.2,3.2,0,0,1,1.305-1.386,3.7,3.7,0,0,1,1.881-.5,3.045,3.045,0,0,1,3.078,1.872,4.3,4.3,0,0,1,3.546-1.872,3.559,3.559,0,0,1,2.619.99,3.854,3.854,0,0,1,1,2.862V0H248.22V-5.256q0-2.646-2.2-2.646a2.663,2.663,0,0,0-1.791.657,2.488,2.488,0,0,0-.8,1.917V0h-2.016V-5.256a3.326,3.326,0,0,0-.486-2.007A1.8,1.8,0,0,0,239.4-7.9a2.638,2.638,0,0,0-1.818.693A2.577,2.577,0,0,0,236.808-5.184Z" transform="translate(177 307.985)" fill="#fff"/>
  </g>
</svg>
